# xmcd
#
# Track frame offsets:
# 150
# 15471
# 30402
# 42686
# 55286
# 67810
# 84854
# 99364
# 115688
# 128411
# 142749
# 155240
# 168581
# 183265
# 195790
# 207847
# 220445
# 235951
# 247958
# 263433
#
# Disc length: 3655 seconds
#
#
# Revision: 0
# Processed by: cddbd v1.5.2PL0 Copyright (c) Steve Scherf et al.
# Submitted via: FreeRIP 2.951 
#
DISCID=fc0e4514
DTITLE=Elisabeth Lord's - Dansfavoriter
DYEAR=2007
DGENRE=Dansband
TTITLE0=Jag ger dig en blomma
TTITLE1=Jambalaya
TTITLE2=Sail along silvery moon
TTITLE3=Tunna skivor
TTITLE4=Är du ensam ikväll
TTITLE5=California blue
TTITLE6=Mona Lisa
TTITLE7=Du é min man
TTITLE8=Who's sorry now
TTITLE9=En liten fågel
TTITLE10=Ramona
TTITLE11=Ditt hjärtas stängda port
TTITLE12=I just wanna dance with you
TTITLE13=Slit o släng
TTITLE14=Kärleksbrev i sanden
TTITLE15=Adress Rosenhill
TTITLE16=Elisabeths tango
TTITLE17=Just walk on by
TTITLE18=The Elephant song
TTITLE19=Good luck charm
EXTD=
EXTT0=
EXTT1=
EXTT2=
EXTT3=
EXTT4=
EXTT5=
EXTT6=
EXTT7=
EXTT8=
EXTT9=
EXTT10=
EXTT11=
EXTT12=
EXTT13=
EXTT14=
EXTT15=
EXTT16=
EXTT17=
EXTT18=
EXTT19=
PLAYORDER=
